<?xml version="1.0" encoding="utf-8"?>
<!-- Svg Vector Icons : http://www.onlinewebfonts.com/icon -->
<!DOCTYPE svg PUBLIC "-//W3C//DTD SVG 1.1//EN" "http://www.w3.org/Graphics/SVG/1.1/DTD/svg11.dtd">
<svg version="1.1" xmlns="http://www.w3.org/2000/svg" xmlns:xlink="http://www.w3.org/1999/xlink" x="0px" y="0px" viewBox="0 0 1000 1000" enable-background="new 0 0 1000 1000" xml:space="preserve">
<metadata> Svg Vector Icons : http://www.onlinewebfonts.com/icon </metadata>
<g><g transform="translate(0.000000,503.000000) scale(0.100000,-0.100000)"><path d="M764.4,4910c-317.6-62.3-584.5-335.1-644.9-658.5c-25.3-138.3-25.3-331.2,2-413c33.1-97.4,128.6-187,233.8-222.1c101.3-35.1,202.6-132.5,224.1-216.3c21.4-85.7-3.9-233.8-50.7-300c-29.2-39-93.5-83.8-185.1-126.6c-202.6-91.6-231.9-144.2-241.6-446.1c-9.7-344.9,33.1-446.2,229.9-531.9c185.1-81.8,255.2-171.4,255.2-329.3c0-128.6-72.1-245.5-181.2-298.1c-46.8-23.4-93.5-40.9-105.2-40.9c-44.8,0-157.8-128.6-179.2-204.6c-29.2-109.1-25.3-469.5,5.8-561.1c37-103.3,81.8-148.1,206.5-202.6c183.1-81.8,253.3-173.4,253.3-327.3c0-153.9-70.1-245.5-253.3-327.3C142.9-379.7,100-467.4,100-771.3c0-114.9,9.7-245.5,21.4-288.3c25.3-89.6,126.6-192.9,206.5-212.4c157.8-39,259.1-169.5,259.1-333.2c0-153.9-70.1-245.5-255.2-327.3c-196.8-85.7-239.6-187-229.9-531.9c9.7-300,35.1-346.8,241.6-446.2c89.6-40.9,159.8-89.6,187-128.6c44.8-64.3,70.1-214.3,48.7-298.1c-21.4-83.8-122.7-181.2-226-216.3c-128.6-42.9-226-152-245.5-274.7c-19.5-134.4,3.9-376,50.7-498.8c81.8-222.1,261.1-399.4,481.2-483.2c124.7-46.8,364.3-70.1,500.7-50.6c113,17.5,231.8,116.9,266.9,222.1c56.5,179.2,175.3,265,348.7,253.3c153.9-11.7,220.2-64.3,303.9-241.6c95.5-200.7,146.1-229.9,422.8-239.7c292.2-9.7,370.2,5.9,461.8,87.7c40.9,39,85.7,101.3,99.4,140.3c56.5,179.2,175.4,265,348.8,253.3c153.9-11.7,218.2-62.3,302-239.6c95.5-200.7,148.1-231.9,424.7-241.6c115-3.9,249.4,0,298.1,7.8c118.8,17.5,227.9,115,270.8,243.5c35.1,103.3,132.5,204.6,216.3,226c85.7,21.4,233.8-3.9,300-50.7c39-29.2,83.8-93.5,126.6-185.1c91.6-202.6,144.2-231.9,444.2-241.6c144.2-3.9,263,2,315.6,17.5c103.3,29.2,189,115,233.8,239.6c37,99.4,136.4,200.7,216.3,220.2c81.8,21.4,233.8-3.9,292.2-44.8c31.2-23.4,91.6-109.1,134.4-192.9c107.2-210.4,144.2-229.9,446.2-239.7c344.8-9.7,446.2,33.1,531.9,229.9c81.8,185.1,173.4,255.2,327.3,255.2c163.7,0,294.2-101.3,333.2-259.1c19.5-79.9,122.8-181.2,212.4-206.5c253.3-70.1,617.6,13.6,808.5,185.1c200.7,181.2,272.8,360.4,272.8,680c0,272.8-25.3,319.5-216.3,413c-226,109.1-315.6,270.8-241.6,444.2c44.8,109.1,81.8,144.2,214.3,206.5c218.2,99.4,243.5,152,243.5,510.4c0,348.8-13.6,374.1-239.6,491c-167.6,85.7-220.2,146.1-239.6,274.7c-11.7,83.8,25.3,200.7,85.7,266.9c17.5,21.4,95.5,66.3,169.5,103.3c208.5,101.3,214.3,113,214.3,485.1c0,288.3-3.9,315.6-42.9,372.1c-23.4,31.2-74,74-111.1,91.6c-39,17.5-101.3,48.7-140.3,66.3c-83.8,40.9-159.8,146.1-177.3,247.4c-25.3,153.9,107.2,337.1,268.9,372.1c79.9,17.5,189,130.5,202.6,210.4c7.8,37,9.7,183.1,5.8,327.3c-7.8,313.7-19.5,337.1-220.2,434.5c-74,37-152,81.8-169.5,103.3c-62.3,68.2-97.4,183.1-85.7,266.9c23.4,134.4,77.9,198.7,235.7,274.7c105.2,48.7,157.8,87.7,194.8,140.3c46.8,70.1,48.7,85.7,48.7,352.6c0,360.4-27.3,415-253.3,516.3c-122.7,54.6-161.7,91.6-204.6,198.7c-74,173.4,15.6,335.1,241.6,444.2c190.9,93.5,216.3,140.3,216.3,413c0,245.5-33.1,376-134.4,522.1c-169.5,247.4-418.9,364.3-769.6,364.3c-214.3-1.9-344.8-79.9-391.6-233.8c-44.8-153.9-175.4-253.3-329.3-253.3c-155.9,0-247.4,70.2-329.2,253.3c-89.6,206.5-181.2,243.5-553.3,231.9c-278.6-9.7-319.5-33.1-424.7-239.6c-42.9-83.8-103.3-169.5-134.4-192.9c-58.4-40.9-210.4-66.3-292.2-44.8c-83.8,21.4-181.2,122.7-216.3,226c-42.9,128.6-152,226-270.8,243.5c-48.7,7.8-183.1,11.7-298.1,7.8c-276.7-9.7-331.2-40.9-426.7-243.5c-42.9-87.7-91.6-159.8-128.6-185.1c-62.4-44.8-212.4-70.2-296.1-48.7c-83.8,21.4-181.2,122.7-216.3,226c-42.9,128.6-152,226-270.8,243.5c-48.7,7.8-183.1,11.7-298.1,7.8c-276.7-9.7-329.3-40.9-424.7-241.6c-81.8-171.5-148.1-228-292.2-239.6c-173.4-13.6-303.9,77.9-358.5,253.3c-13.6,39-58.4,101.3-99.4,140.3c-91.6,81.8-169.5,97.4-461.8,87.7c-276.7-9.7-327.3-39-422.8-239.6c-89.6-190.9-152-235.8-323.4-235.8c-165.6,0-237.7,48.7-311.7,212.4c-64.3,138.3-140.3,218.2-235.7,245.5C1111.2,4935.3,885.2,4933.3,764.4,4910z M9288.2,4570.9c183.1-76,300-266.9,300-491v-140.3l-105.2-50.7c-136.4-64.3-257.2-187-321.5-321.5c-68.2-144.2-72.1-391.6-7.8-529.9c60.4-130.5,183.1-255.2,317.6-319.5l116.9-56.5v-179.2v-179.2l-105.2-46.8c-134.4-62.3-255.2-183.1-321.5-323.4c-70.1-150-72.1-393.6-5.8-529.9c72.1-144.2,169.5-243.5,305.9-311.7l126.6-62.3V849.7V670.4l-126.6-62.3c-136.4-68.2-233.8-167.6-305.9-311.7c-35.1-72.1-42.9-122.8-44.8-255.2c0-150,5.8-179.2,64.3-296.1c70.1-144.2,173.4-241.6,321.5-307.8l91.6-40.9V-783v-181.2l-115-54.5c-360.4-171.5-479.3-611.8-255.2-950.8c62.3-93.5,226-220.2,317.6-241.6l52.6-11.7v-190.9v-189l-87.7-33.1c-122.7-48.7-270.8-187.1-335.1-319.5c-72.1-148.1-77.9-391.6-11.7-533.8c60.4-134.4,202.6-276.7,327.3-329.2l107.2-46.8v-146.1c0-175.4-52.6-307.8-163.7-405.2c-105.2-91.6-190.9-120.8-362.4-120.8h-150l-62.4,126.6c-93.5,189-239.6,298.1-461.7,341c-282.5,56.5-592.3-113-703.3-379.9l-35.1-87.7h-185.1h-185.1l-66.3,126.6c-97.4,189-239.6,296.1-454,339c-282.5,58.4-600.1-111.1-711.1-378l-35.1-87.7h-187H5641l-42.9,93.5c-66.3,144.2-165.6,247.4-307.8,317.6c-111.1,54.6-148.1,64.3-280.6,64.3c-132.5,0-169.5-9.7-280.6-64.3c-144.2-70.1-265-194.8-315.6-325.4l-33.1-85.7h-187h-187l-42.9,93.5c-66.2,144.2-167.5,249.4-309.8,317.6c-111,54.6-148.1,64.3-280.6,64.3c-132.5,0-169.5-9.7-280.6-64.3c-144.2-70.1-265-194.8-315.6-325.4l-33.1-85.7h-189h-189l-33.1,85.7c-50.7,130.5-171.5,255.2-315.6,325.4c-257.2,126.6-553.3,70.2-752-140.3c-50.6-52.6-105.2-136.4-124.7-183.1l-33.1-87.7H953.4c-181.2,0-266.9,31.2-374.1,132.5c-111.1,107.2-148.1,198.7-148.1,383.8v155.9l87.7,37c319.5,130.5,481.2,539.7,339,849.5c-70.1,152-153.9,239.6-300,313.7l-126.6,66.2v185.1v185.1l107.2,46.8c70.1,29.2,140.3,81.8,202.6,150c294.2,321.5,189,833.9-204.6,1015.1L431.2-970v183.1v181.2L536.4-555C672.8-488.8,785.8-373.9,854-235.5c66.2,136.4,74,327.3,17.5,491C822.8,393.8,633.8,590.5,513,627.6l-81.8,23.4v191v190.9l105.2,46.7c300,138.3,446.2,489,335.1,808.5c-46.8,140.3-194.8,296.1-333.2,356.6l-107.2,46.7v185.1v185.1l126.6,66.3c70.1,35.1,153.9,95.5,187,134.4c171.4,194.8,212.4,467.6,105.2,701.4c-64.3,142.2-196.8,272.8-331.2,327.3l-87.7,37v155.9c0,185.1,37,276.7,148.1,383.8c107.2,101.3,192.9,132.5,374.1,132.5h153.9l33.1-85.7c50.7-130.5,171.5-255.2,315.6-325.4c111-54.5,148.1-64.3,280.6-64.3s169.5,9.7,280.6,64.3c142.2,70.1,241.6,173.4,307.8,317.6l42.9,93.5h187h189l33.1-85.7c50.7-130.5,171.5-255.2,315.6-325.4c111-54.5,148.1-64.3,276.7-64.3c257.2,1.9,454,120.8,570.9,348.7l66.2,126.6h185.1h185.1l35.1-87.7c54.6-130.5,173.4-253.3,317.6-323.4c249.4-122.7,541.6-72.1,732.6,124.7c46.7,46.8,105.2,130.5,130.5,185.1l46.7,101.3h187.1h187l37-93.5c56.5-132.5,185.1-261.1,329.2-325.4c319.5-144.2,699.5-3.9,843.6,311.7l48.7,107.2h189h189l37-91.6c114.9-276.6,444.2-442.3,734.5-368.2c210.4,54.5,374.1,192.9,454,381.9c15.6,37,35.1,76,44.8,83.8C8941.4,4629.4,9212.2,4602.1,9288.2,4570.9z"/><path d="M4579.2,2934.4c-666.3-109.1-1176.8-368.2-1646.3-837.8c-438.4-438.4-705.3-944.9-818.3-1550.8c-46.8-249.4-48.7-777.4-1.9-1024.8c113-613.7,426.7-1188.5,882.6-1621c835.8-791,2049.6-1017,3123.1-580.6c376,152,678,354.6,976.1,656.6C8099.8-1011,8224.5,569.1,7392.5,1742c-62.3,87.7-204.6,251.3-319.5,366.3c-405.3,405.2-907.9,676-1482.7,798.8C5348.7,2959.7,4814.9,2973.3,4579.2,2934.4z M5529.9,2595.4C6582,2379.1,7408.1,1527.7,7589.3,471.7c39-233.8,40.9-644.9,1.9-870.9c-189-1089.1-1013.1-1926.9-2108.1-2145.1c-255.2-50.6-732.6-44.8-993.6,9.7C3425.8-2306.6,2615.3-1476.6,2424.3-418.7c-42.9,233.8-42.9,666.3,0,900.1c138.3,763.7,604,1424.2,1285.9,1823.6c263,153.9,660.5,286.4,987.8,327.3C4900.6,2659.7,5307.8,2640.2,5529.9,2595.4z"/></g></g>
</svg>
