<?xml version="1.0" encoding="iso-8859-1"?>
<!-- Generator: Adobe Illustrator 18.0.0, SVG Export Plug-In . SVG Version: 6.00 Build 0)  -->
<!DOCTYPE svg PUBLIC "-//W3C//DTD SVG 1.1//EN" "http://www.w3.org/Graphics/SVG/1.1/DTD/svg11.dtd">
<svg version="1.1" id="Capa_1" xmlns="http://www.w3.org/2000/svg" xmlns:xlink="http://www.w3.org/1999/xlink" x="0px" y="0px"
	 viewBox="0 0 477.665 477.665" style="enable-background:new 0 0 477.665 477.665;" xml:space="preserve">
<path d="M394.812,91.781c-13.207-23.244-40.207-41.579-80.247-54.495c-5.316-1.719-10.975-3.219-16.825-4.461
	c-15.373-3.246-28.867-10.949-38.994-22.243l-0.558-0.631c-5.49-6.128-13.356-9.752-21.58-9.944
	c-8.224-0.178-16.254,3.064-22.029,8.934l-1.127,1.147c-15.622,15.885-35.277,28.444-56.841,36.321
	c-21.939,8.013-41.153,18.031-55.563,28.972c-15.569,11.82-24.653,24.194-26.271,35.785c-0.128,0.916-0.042,1.849,0.25,2.727
	c9.549,28.647,59.523,29.695,96.012,30.459c7.188,0.151,13.396,0.281,18.254,0.628c6.211,0.442,17.831,0.753,31.765,0.862v3.413
	l-14.178,10.204c-1.606,1.156-2.54,3.031-2.494,5.01c0.046,1.979,1.066,3.808,2.725,4.888c0.437,0.285,5.827,3.75,13.947,7.163
	v295.145c0,3.313,2.687,6,6,6h27.33c3.313,0,6-2.687,6-6V182.687c1.94-0.314,3.833-0.731,5.665-1.261
	c8.471-2.452,12.995-6.558,13.444-12.204c0.736-9.237-11.245-17.118-19.109-21.265v-2.3c23.391-0.388,54.944-1.39,82.65-3.903
	c43.254-3.924,53.704-9.525,57.801-13.397c0.937-0.885,1.563-2.049,1.788-3.318C402.737,124.43,405.136,109.951,394.812,91.781z
	 M160.729,57.681c23.227-8.484,44.417-22.032,61.282-39.182l1.126-1.147c3.508-3.565,8.2-5.443,13.191-5.349
	c4.997,0.117,9.586,2.231,12.895,5.925l0.559,0.632c11.869,13.237,27.595,22.229,45.471,26.004
	c5.441,1.155,10.696,2.548,15.624,4.141c45.517,14.683,64.823,34.287,73.004,48.147c3.655,6.193,5.467,11.752,6.338,16.134
	c-3.476-3.018-7.379-5.686-11.701-7.968c-3.975-2.097-10.548-3.849-18.623-5.313c-1.521-4.169-4.458-10.447-9.814-16.655
	c-1.443-1.672-3.968-1.859-5.642-0.416c-1.673,1.443-1.859,3.969-0.416,5.642c2.994,3.47,5.089,6.97,6.541,9.949
	c-2.613-0.366-5.316-0.709-8.088-1.031c-2.438-5.811-7.007-16.037-11.47-22.476c-1.258-1.815-3.75-2.266-5.566-1.009
	c-1.815,1.259-2.267,3.751-1.009,5.566c3.157,4.554,6.497,11.503,8.911,16.953c-22.79-2.197-47.929-3.163-62.29-3.563
	c-52.419-1.46-100.738,0.278-123.1,4.433c-5.031,0.935-9.653,1.921-13.937,2.936c2.431-3.299,5.822-6.844,10.427-9.607
	c1.894-1.137,2.508-3.594,1.372-5.488c-1.137-1.894-3.593-2.508-5.488-1.372c-9.676,5.806-14.911,14.227-17.38,19.368
	c-17.481,5.069-27.233,10.417-32.229,13.895c-1.636-1.624-2.928-3.421-3.802-5.415C90.735,94.187,120.655,72.318,160.729,57.681z
	 M248.39,145.807l-15.33,0.374v-19.218l2.698,1.519c0.62,0.349,1.294,0.515,1.958,0.515c1.398,0,2.755-0.734,3.49-2.039
	c1.083-1.925,0.401-4.364-1.524-5.448l-6.622-3.727v-13.613c5.024-0.011,10.145,0.011,15.33,0.065V145.807z M190.148,133.01
	c-5.159-0.368-11.506-0.501-18.856-0.655c-20.431-0.428-50.498-1.06-69.048-8.48c7.611-4.143,22.19-10.203,47.902-14.98
	c4.82-0.895,11.049-1.674,18.374-2.328l-32.13,11.324c-2.083,0.734-3.177,3.019-2.443,5.102c0.579,1.644,2.123,2.671,3.772,2.671
	c0.441,0,0.89-0.073,1.33-0.229c0,0,59.171-20.63,59.532-20.643l-25.595,15.445c-1.891,1.142-2.499,3.6-1.358,5.492
	c0.751,1.245,2.073,1.934,3.429,1.934c0.704,0,1.417-0.186,2.063-0.576l37.67-22.732c1.518-0.028,3.047-0.054,4.59-0.076
	l-16.649,18.725c-1.468,1.651-1.319,4.179,0.332,5.647c0.762,0.678,1.711,1.011,2.656,1.011c1.103,0,2.2-0.453,2.991-1.342
	l12.351-13.89v19.411C207.546,133.733,196.016,133.428,190.148,133.01z M233.06,465.665v-57.972l1.627,1.194
	c0.713,0.523,1.542,0.775,2.363,0.775c1.23,0,2.445-0.566,3.229-1.634c1.307-1.781,0.922-4.285-0.858-5.592l-6.36-4.667v-62.507
	l1.935,1.161c0.645,0.387,1.354,0.571,2.055,0.571c1.358,0,2.683-0.692,3.433-1.941c1.137-1.894,0.524-4.352-1.37-5.488
	l-6.053-3.634v-71.541l0.854,1.082c0.789,1.001,1.96,1.522,3.143,1.522c0.868,0,1.741-0.281,2.475-0.86
	c1.734-1.368,2.031-3.883,0.663-5.618l-7.134-9.042v-28.544c0.219,0.036,0.439,0.063,0.66,0.063c1.023,0,2.046-0.39,2.827-1.17
	c1.563-1.561,1.564-4.094,0.002-5.657l-3.49-3.493v-21.99c4.791,1.308,9.98,2.279,15.33,2.579v35.772l-7.453,2.898
	c-2.059,0.8-3.079,3.119-2.278,5.178c0.615,1.583,2.127,2.551,3.729,2.551c0.482,0,0.972-0.088,1.449-0.273l4.554-1.771v50.679
	l-8.533,4.49c-1.955,1.029-2.706,3.448-1.677,5.403c0.716,1.361,2.105,2.138,3.543,2.138c0.628,0,1.265-0.148,1.859-0.461
	l4.807-2.529v65.108l-6.63,3.728c-1.926,1.083-2.609,3.521-1.526,5.447c0.734,1.306,2.091,2.04,3.49,2.04
	c0.664,0,1.337-0.166,1.957-0.514l2.709-1.524v104.04H233.06z M267.283,167.986c-0.614,0.428-1.933,1.151-4.564,1.913
	c-3.371,0.976-7.05,1.47-10.936,1.47c0,0,0,0,0,0c-11.537,0-22.865-4.288-30.135-7.752l7.414-5.335l24.017-0.586
	C260.039,161.169,265.909,165.675,267.283,167.986z M260.39,133.655v-9.99l2.796,3.73c0.786,1.048,1.987,1.601,3.203,1.601
	c0.835,0,1.677-0.26,2.396-0.8c1.768-1.325,2.126-3.832,0.801-5.6l-9.197-12.266v-5.916c2.242,0.044,4.493,0.095,6.749,0.152
	l23.251,20.747c0.763,0.681,1.714,1.016,2.662,1.016c1.1,0,2.196-0.451,2.986-1.337c1.471-1.648,1.327-4.177-0.321-5.647
	l-16.145-14.406c0.662,0.023,56.752,20.472,56.752,20.472c0.46,0.171,0.932,0.252,1.396,0.252c1.623,0,3.149-0.995,3.749-2.604
	c0.771-2.07-0.282-4.374-2.352-5.145l-31.244-11.641c38.842,2.393,59.191,6.27,65.047,9.359c4.159,2.195,7.826,4.81,10.971,7.808
	C367.56,128.033,329.169,132.527,260.39,133.655z"/>
<g>
</g>
<g>
</g>
<g>
</g>
<g>
</g>
<g>
</g>
<g>
</g>
<g>
</g>
<g>
</g>
<g>
</g>
<g>
</g>
<g>
</g>
<g>
</g>
<g>
</g>
<g>
</g>
<g>
</g>
</svg>
