<?xml version="1.0" encoding="utf-8"?>
<!-- Generator: Adobe Illustrator 23.0.5, SVG Export Plug-In . SVG Version: 6.00 Build 0)  -->
<svg version="1.1" id="Layer_2" xmlns="http://www.w3.org/2000/svg" xmlns:xlink="http://www.w3.org/1999/xlink" x="0px" y="0px"
	 viewBox="0 0 130.7 130.7" style="enable-background:new 0 0 130.7 130.7;" xml:space="preserve">
<style type="text/css">
	.st0{fill:#4D2D81;}
	.st1{fill:#FFFFFF;}
</style>
<circle class="st0" cx="65.2" cy="64.3" r="64.2"/>
<g id="layer1" transform="translate(-292.58587,-462.09099)">
	<g id="g20" transform="matrix(1.25,0,0,-1.25,395.77858,514.7179)">
	</g>
	<g id="g24" transform="matrix(1.25,0,0,-1.25,338.37446,590.65915)">
	</g>
	<g id="g28" transform="matrix(1.25,0,0,-1.25,392.16658,535.9374)">
	</g>
	<g id="g32" transform="matrix(1.25,0,0,-1.25,374.28509,463.3239)">
		<path id="path4849" class="st1" d="M-13.2-100.2c-27.5,0-49.8,22.3-49.8,49.8c0,27.5,22.3,49.8,49.8,49.8
			c27.5,0,49.8-22.3,49.8-49.8C36.6-77.9,14.3-100.2-13.2-100.2z M-13.2-96.4c25.4,0,46,20.6,46,46c0,25.4-20.6,46-46,46
			s-46-20.6-46-46C-59.3-75.8-38.6-96.4-13.2-96.4z M-38.4-86.7c-0.5,0-1,0-1.4,0.3c-0.4,0.3-0.7,0.8-0.8,1.3
			c-0.8,2.8-1.7,5.6-2.6,8.4c-0.6,2.1-1.5,4.2-1.9,6.5c-0.6,4,0.8,7.5,3.6,10.3c0.4,0.4,0.9,0.8,1.3,1.2c-1.1,0.2-2.2,0.3-3.3,0.7
			c-2.7,0.8-5.1,2.5-6.4,5.2c-0.9,1.9-1.6,3.8-2.2,5.7c-1,2.9-1.9,5.7-2.8,8.6c0,0.1-0.2,0.3-0.4,0.7c0,0,0,0,0,0
			c-0.6,1-0.3,2.3,0.7,3c2.3,1.5,4.6,3,6.9,4.6c1.4,1,2.7,2.1,4.2,3.2c3.2,2.3,6.9,3,10.7,1.6c1.3-0.5,2.4-1.1,3.5-1.7
			c-0.2,1-0.5,1.9-0.5,3.1c-0.2,4.2,1.5,7.8,4.9,10.3c3.7,2.7,7.3,5.4,11,8.2c0,0,0,0,0,0c0.3,0.3,0.7,0.5,1.2,0.5
			c0.5,0,0.9-0.2,1.2-0.5c3.5-2.7,6.9-5.4,10.5-7.9c4.1-2.9,5.7-7,5.2-11.8c-0.1-0.6-0.2-1.2-0.3-1.8c2.8,1.7,5.8,2.4,9.1,1.7
			c1.9-0.4,3.5-1.3,5-2.3c3.2-2.4,6.5-4.7,9.8-7.1c0.4-0.3,0.8-0.6,1.1-0.8c0.3-0.3,0.5-0.6,0.6-0.9c0.1-0.4,0-0.8-0.1-1.1
			c-0.1-0.4-0.2-0.7-0.4-1.2c-1.1-3-2.1-6-3-9c-1-3.4-2.2-6.8-5.6-8.9c0,0,0,0,0,0c-2-1.2-4.2-1.8-6.4-2c0.2-0.1,0.4-0.3,0.5-0.5
			c0,0,0,0,0,0c4-3.5,4.8-8.7,3.3-13.2c-1.4-4.1-2.5-8.3-3.8-12.5c-0.1-0.4-0.4-0.7-0.7-0.9c-0.3-0.2-0.6-0.4-1.1-0.4
			c-4.7-0.1-9.5-0.1-14.2,0c-4.6,0.1-8.1,2.5-10.3,6.4c-0.4,0.6-0.6,1.2-0.9,1.8c-0.6-1.2-1.1-2.3-1.9-3.5c-1.5-2.4-3.9-4.1-6.7-4.5
			c-2.4-0.4-4.9-0.2-7.2-0.3C-32.3-86.6-35.4-86.6-38.4-86.7L-38.4-86.7z M-24.8-83.8c3.8,0,6.3,1.7,8.2,5c1.4,2.5,1.9,5.4,2,8.4
			c0,0.7,0.3,1.2,0.5,1.6c0.1,0.4,0.5,0.6,0.9,0.5c0.1,0,0.2-0.1,0.3-0.2c0.1-0.1,0.2-0.2,0.3-0.3c0.1-0.1,0.2-0.2,0.3-0.4v0
			c0.1-0.3,0.1-0.5,0.2-0.7v0c0.4-2.3,0.5-4.6,1.2-6.6c0.8-2.3,1.8-4.1,3.4-5.4c1.5-1.3,3.6-2,6.4-1.9c1.7,0.1,3.5,0.1,5.2,0.2
			c2.4,0,4.9,0,7.3,0c0,0.1,0,0.2,0.1,0.3c0,0,0,0,0,0c1.3,4.2,2.7,8.3,3.9,12.5c0.8,2.8,0.4,5.4-1.4,7.8c-1.7,2.4-4.1,3.8-6.8,5
			c0,0,0,0,0,0c-0.6,0.3-0.8,0.7-1,0.8c-0.3,0.3-0.3,0.8-0.1,1.1c0.1,0.1,0.2,0.2,0.4,0.2c0.2,0,0.6,0.3,1.2,0.2
			c2-0.2,3.9-0.5,5.8-0.5c4.5,0.1,8.1,2.7,9.3,7.2c1.1,3.9,2.5,7.7,3.8,11.5c0-0.1,0,0,0,0.1c0,0.1-0.1,0.2,0,0.1
			c-3.6,2.7-7.2,5.3-10.9,7.9c0,0,0,0,0,0c-2.7,1.9-5.6,2-8.6,0.9c-2.1-0.8-3.9-2.3-5.5-3.9c-0.3-0.3-0.7-0.6-1-0.8
			c-0.3-0.2-0.6-0.2-0.9-0.1l-0.3,0.2c-0.3,0.2-0.4,0.5-0.3,0.9c0.1,0.3,0.2,0.7,0.4,1.2c1.2,2.2,2.1,4.4,2.2,6.8c0,0,0,0,0,0
			c0.2,3.2-0.7,5.8-3.1,7.7c-3.6,2.9-7.4,5.5-11.1,8.2c-0.2,0.1-0.2,0.1-0.1,0.1c0,0,0,0-0.2-0.1c0,0,0,0,0,0
			c-3.4-2.6-6.9-5.1-10.4-7.6c-2.8-2-4-4.6-3.9-8.1c0.1-3,1.4-5.7,3-8.3c0.2-0.3,0.2-0.7,0.2-0.9c0-0.2,0-0.4,0-0.5
			c0-0.4-0.3-0.8-0.7-0.8c-0.1,0-0.2,0-0.4,0.1c-0.2,0.1-0.6,0.1-1,0.5c0,0,0,0,0,0c-1.7,1.5-3.2,3.1-4.8,4.3c-2.8,2-5.9,2.5-9.1,1
			c-1.5-0.7-2.9-1.9-4.5-3c-1.3-0.9-2.4-2-3.8-2.9c-1.4-1-2.8-1.8-4.1-2.6c0.2,0.1,0.1,0,0,0c0-0.1,0-0.2,0,0
			c0.9-2.8,1.9-5.6,2.8-8.4c0.6-1.9,0.9-3.8,1.7-5.2c1.8-3.6,4.8-5.4,8.8-5.3c2.1,0.1,4.3,0.5,6.6,0.8c0.7,0.1,1.1-0.2,1.3-0.3
			c0.4-0.1,0.7-0.5,0.6-0.9c0-0.1-0.1-0.3-0.2-0.4c-0.1-0.1-0.4-0.7-1.1-0.9c0,0,0,0,0,0c-2.4-0.8-4.7-2-6.6-3.6
			c-2.3-1.9-3.6-4.2-3.7-7.4c0-2.3,1-4.3,1.7-6.7c0.8-2.9,1.6-5.8,2.5-8.6c-0.1,0.2,0,0.1,0,0c0.1-0.1,0.2-0.1,0.1-0.1
			c1.2,0,2.4,0.1,3.7,0.1c0,0,0,0,0,0C-31.1-83.6-28-83.8-24.8-83.8L-24.8-83.8z M8.9-81.7c-0.1,0-0.1,0-0.2,0
			c-0.2,0.1-0.8,0-1.4,0.5c-1.6,1.2-3.2,2.5-4.8,3.7c-5.4,4.1-10.7,8.2-16.1,12.4c-0.1,0.1-0.2,0.1-0.1,0.1c0,0,0,0-0.2-0.1
			c-4.8-3.7-9.6-7.3-14.3-11c-2.3-1.7-4.5-3.5-6.8-5.1c0,0,0,0,0,0c-0.3-0.2-0.7-0.3-0.9-0.3c-0.3,0-0.5,0-0.6,0
			c-0.4-0.1-0.8,0.2-0.9,0.6c0,0.1,0,0.1,0,0.2c0,0.2-0.1,0.6,0.1,1.1c0,0,0,0,0,0c2.1,6.9,4.2,13.8,6.4,20.7c0.5,1.7,1.1,3.3,1.6,5
			c0,0,0,0,0,0c0.1,0.2,0.1,0.3,0.1,0.3c0,0,0,0.1-0.2,0.2c-4.3,3.1-8.6,6.2-13,9.2c-2.6,1.8-5.2,3.7-7.9,5.5c0,0,0,0,0,0
			c-0.3,0.2-0.4,0.5-0.5,0.7c-0.1,0.2-0.1,0.4-0.2,0.4c-0.2,0.4-0.1,0.8,0.3,1c0,0,0,0,0.1,0c0.1,0.1,0.5,0.4,1.1,0.4
			c0.8,0,1.6,0,2.3,0c0.1,0,0.2,0.1,0.3,0.1c7.4,0.2,14.7,0.5,22.1,0.7c1,0,1.4,0.1,1.5,0.1c0.1,0,0.2,0.4,0.6,1.3
			c1.1,3.2,2.2,6.3,3.3,9.5c0,0,0,0,0,0c1.5,4.4,3,8.8,4.6,13.2c0.2,0.7,0.7,0.9,0.9,1.1c0.3,0.3,0.7,0.4,1.1,0.1
			c0.1,0,0.1-0.1,0.1-0.2c0.2-0.2,0.5-0.6,0.7-1.2c0,0,0,0,0,0c1.5-4.3,3.1-8.6,4.6-12.9C-6.3-27.7-5.1-31-4-34.4
			c0.1-0.3,0.2-0.4,0.3-0.5c0.1-0.1,0.2-0.1,0.5-0.1c5.3-0.3,10.7-0.7,16-1c3.4-0.2,6.8-0.4,10.1-0.7c0.8-0.1,1.1-0.5,1.3-0.6
			c0.4-0.2,0.5-0.7,0.3-1c0,0,0,0,0-0.1c-0.1-0.2-0.3-0.7-0.8-1c-7-4.8-13.9-9.7-20.9-14.5c-0.2-0.2-0.3-0.2-0.3-0.3c0,0,0,0,0-0.3
			c0.8-2.5,1.5-5.1,2.2-7.6c1.5-5,2.9-10.1,4.4-15.1c0.2-0.8,0.5-1.6,0.7-2.5c0.1-0.6,0-1.1-0.1-1.3C9.7-81.4,9.3-81.7,8.9-81.7
			L8.9-81.7z M-33.8-77.2c3.8,2.9,7.5,5.7,11.3,8.6c2.6,2,5.1,4,7.7,5.9c0.3,0.2,0.6,0.3,1,0.3c0.3,0,0.7,0.1,1.1-0.2c0,0,0,0,0,0
			c6.1-4.6,12.1-9.3,18.1-13.9c0.3-0.2,0.6-0.4,0.9-0.7c-0.5,1.7-1,3.4-1.5,5.1c-1.7,5.9-3.4,11.8-5.1,17.7c0,0,0,0,0,0
			c-0.1,0.4,0,0.8,0.1,1.1c0.1,0.3,0.3,0.6,0.6,0.9c0.9,0.7,1.8,1.3,2.7,1.9C8.6-46.8,14-43,19.5-39.3c-1.6,0.2-3.2,0.3-4.8,0.4
			C8.4-38.4,2.2-38-4-37.6c0,0,0,0,0,0c-0.5,0-1,0.1-1.4,0.4C-5.8-36.9-6-36.4-6.2-36c-0.4,1.1-0.7,2.3-1.1,3.4
			c-1.8,5.2-3.6,10.3-5.4,15.5c-0.2,0.7-0.5,1.3-0.8,2c0,0-0.1-0.1-0.1-0.1v0c-2.4-6.9-4.8-13.9-7.1-20.9c-0.2-0.6-0.5-1.1-1-1.5
			c-0.5-0.4-1.1-0.5-1.8-0.5c-7-0.2-14.1-0.4-21.2-0.7c-0.4,0-0.8-0.1-1.1-0.1c0,0,0,0,0,0l0,0c6-4.3,12-8.6,18-12.8
			c0.5-0.3,0.9-0.7,1.1-1.3c0.2-0.5,0.1-1.1-0.1-1.7c-1.8-5.8-3.6-11.6-5.4-17.4C-32.6-73.7-33.2-75.5-33.8-77.2L-33.8-77.2z
			 M-13.1-61.1c-0.4,0-0.8,0-1.1,0.2c-5.7,3-10.4,7.2-11.9,14c-0.1,0.3-0.1,0.5-0.1,0.7c0,0.2,0,0.4,0,0.3c0,0,0,0.1,0,0.1
			c0,4.1,2.4,7.2,6.1,7.6c2.6,0.3,4.8-1,6.6-2.6l0,0c0.3-0.2,0.4-0.2,0.3-0.2c0,0,0.1,0,0.4,0.2c1.1,0.9,2.4,1.8,3.9,2.2
			c4.8,1.6,9.4-2.6,8.8-7.8c-0.6-4.6-3.2-8.1-6.5-11c-1.7-1.4-3.5-2.5-5.3-3.6C-12.4-61-12.7-61.1-13.1-61.1z M-13.3-58.3
			c0.4,0,0.9,0.1,1.5,0.5c2.4,1.5,4.5,3.3,6.2,5.5c1.6,2.1,2.7,4.2,2.5,6.7c0,0,0,0,0,0.1c0,0.3,0,0.7,0,1.1c0.2,1.8-2.1,4-4.7,3.5
			c-1.5-0.3-2.7-1.1-3.9-2.1c-0.5-0.4-1-0.7-1.7-0.7c-0.6,0-1.2,0.3-1.7,0.7c-1.3,1.1-2.5,1.9-4.1,2.1c-2.4,0.3-4-1-4.4-2.8
			c-0.5-2.1-0.1-4.1,0.9-6.1c1.7-3.4,4.5-5.9,7.8-8C-14.2-58.2-13.7-58.3-13.3-58.3L-13.3-58.3z"/>
	</g>
</g>
</svg>
