<svg xmlns="http://www.w3.org/2000/svg" viewBox="0 0 700.53 115.04"><defs><style>.cls-1,.cls-2{fill:#262424;}.cls-1{fill-rule:evenodd;}</style></defs><title>Asset 2</title><g id="Layer_2" data-name="Layer 2"><g id="Layer_1-2" data-name="Layer 1"><g id="UrCVuP"><path class="cls-1" d="M.83,54.43"/><path class="cls-1" d="M57.37,88.29c-1,1.79-1.85,3.74-3,5.53a10.39,10.39,0,0,1-7.23,4.87,64.92,64.92,0,0,1-8.31.31c-3.63.08-7.27.08-10.9.2a1.49,1.49,0,0,1-1.78-1.26c-1-3.32-2-6.6-3-9.9A54.2,54.2,0,0,1,21,80.54a12.74,12.74,0,0,1,4-11.3c.91-.9,1.88-1.74,2.77-2.56a52.09,52.09,0,0,1-5.53-1.1,11.17,11.17,0,0,1-7-5.61,52.65,52.65,0,0,1-2.54-6.62c-1.15-3.34-2.2-6.71-3.31-10.06a6.47,6.47,0,0,0-.54-1A1.71,1.71,0,0,1,9.35,40c2.71-1.78,5.43-3.55,8.1-5.4,1.7-1.18,3.27-2.54,5-3.73a12.41,12.41,0,0,1,11.75-1.82,52.1,52.1,0,0,1,5.61,2.69,37,37,0,0,1-.88-5.14A12.6,12.6,0,0,1,44.3,15.26c4.33-3.14,8.59-6.36,12.87-9.57a1.24,1.24,0,0,1,1.77,0C63,8.81,67.06,12,71.28,14.93c4.64,3.21,6.33,7.56,5.69,13-.15,1.27-.46,2.52-.73,3.93.32-.18.63-.33.91-.51a13.34,13.34,0,0,1,16.29.25c3.79,2.81,7.62,5.56,11.45,8.31,2.1,1.51,2,1.45,1.13,3.83-1.29,3.52-2.5,7.07-3.57,10.65-1.17,3.9-2.54,7.61-6.22,9.91a16,16,0,0,1-7.69,2.34l-1.45.07c.79.73,1.43,1.36,2.1,1.94a13.27,13.27,0,0,1,3.59,14.57c-1.67,4.84-2.93,9.82-4.43,14.71a1.66,1.66,0,0,1-1.22.94c-5.55.08-11.09.15-16.64.06-5.12-.09-8.83-2.66-11.34-7C58.44,90.69,57.91,89.4,57.37,88.29ZM72.88,36.74l-.34-.22A8.31,8.31,0,0,1,73,35.26a21.11,21.11,0,0,0,2.73-8.37c.28-3.92-.88-7.39-3.93-9.83-4.23-3.39-8.71-6.46-13.07-9.69a1,1,0,0,0-1.41,0c-4,3-8,6-12.12,8.89a11.3,11.3,0,0,0-5,10.2c.14,3.75,1.7,7,3.6,10.14.18.3.07.79.09,1.19a4,4,0,0,1-1-.48,71.4,71.4,0,0,0-5.74-5.12,11.06,11.06,0,0,0-11.5-1.31,34,34,0,0,0-5.39,3.57c-1.52,1.09-2.92,2.34-4.45,3.41S12.57,39.91,11,41a1.21,1.21,0,0,0-.36,1.08c1.07,3.28,2.24,6.53,3.32,9.81.69,2.08,1,4.34,2,6.27a11.47,11.47,0,0,0,11.13,6.65c2.6-.07,5.19-.65,7.79-.94a4.08,4.08,0,0,1,1.28.29c-.32.3-.59.75-1,.87a23.94,23.94,0,0,0-8.07,4.36,11.69,11.69,0,0,0-4.62,9.29c0,2.92,1.27,5.4,2,8.06,1,3.39,1.93,6.77,3,10.13a1.31,1.31,0,0,0,1,.68c1.44,0,2.88-.16,4.32-.15,3.7,0,7.39.17,11.09.17,4.69,0,8.08-2.29,10.33-6.29A21.65,21.65,0,0,0,56.63,81a7.52,7.52,0,0,1,.5-1.7c.36.33.5.39.54.5a3.19,3.19,0,0,1,.13.6c.46,2.61.6,5.32,1.43,7.81,1.84,5.49,5.34,9.36,12.29,9.12,2-.07,4.08-.16,6.12-.19,3.07,0,6.14,0,9.23,0,.07-.29.12-.61.22-.92,1.53-4.88,3.18-9.72,4.57-14.64a11.12,11.12,0,0,0-1.73-9.87,18.77,18.77,0,0,0-8.35-6.14,4.08,4.08,0,0,1-.94-.81,4.2,4.2,0,0,1,1.16-.24,65.49,65.49,0,0,0,6.84.59,12.08,12.08,0,0,0,11.76-9.05c1.28-4.55,3-9,4.41-13.5a1.35,1.35,0,0,0-.36-1.19c-4.23-3.12-8.46-6.24-12.77-9.24A11.23,11.23,0,0,0,80.74,31,19.58,19.58,0,0,0,74,35.84C73.62,36.17,73.24,36.44,72.88,36.74Z"/><path class="cls-1" d="M18.14,41.8q13-.44,25.92-.86c2.43-.08,2.41,0,3.18-2.33,1.26-3.7,2.54-7.39,3.82-11.08,1.78-5.14,3.56-10.28,5.37-15.41a4.21,4.21,0,0,1,.85-1.06,5.88,5.88,0,0,1,.77,1.17q2.7,7.52,5.34,15.06c1.37,3.92,2.74,7.84,4.05,11.78a1.65,1.65,0,0,0,1.74,1.34c6.25.35,12.49.79,18.74,1.2,4,.26,7.92.5,11.87.8.38,0,.73.39,1.1.6a4,4,0,0,1-.75,1Q87.93,52.54,75.67,61A1.23,1.23,0,0,0,75,62.61c.9,2.95,1.7,5.92,2.56,8.88q2.56,8.87,5.13,17.74c.28,1,.62,1.9.84,2.87a4.38,4.38,0,0,1-.08,1.27,4.21,4.21,0,0,1-1.35-.4c-1.88-1.39-3.7-2.85-5.56-4.28Q67.16,81.44,57.72,74.2a1,1,0,0,0-1.41,0q-8.38,6.45-16.8,12.85c-2.65,2-5.31,4-8,6-.33.24-.89.16-1.34.22a5.07,5.07,0,0,1,.09-1.14Q34,80.09,37.74,68q.91-2.92,1.91-5.81a1.21,1.21,0,0,0-.5-1.6C34.08,57,29,53.37,23.95,49.78c-3.06-2.17-6.16-4.3-9.21-6.49-.28-.2-.38-.66-.56-1a3.17,3.17,0,0,1,1-.39c1-.05,2,0,3,0ZM31.85,91a3.58,3.58,0,0,0,.67-.22q7.33-5.56,14.65-11.13c3-2.3,6-4.65,9.05-6.92a1.5,1.5,0,0,1,1.38-.13C64.71,78,71.78,83.47,78.87,88.9c.86.66,1.75,1.26,2.63,1.89a3,3,0,0,0,0-1.55c-.62-2.16-1.26-4.32-1.89-6.48-2-6.92-4-13.83-6-20.77a1.73,1.73,0,0,1,.52-1.44c1-.79,2.05-1.42,3.08-2.13L96.76,44.91c.48-.33.92-.72,1.38-1.08-2.74-.42-5.35-.57-8-.74-7.29-.48-14.58-1-21.87-1.44a1.7,1.7,0,0,1-1.74-1.28c-.43-1.35-.88-2.69-1.34-4q-3.14-9.08-6.3-18.14c-.48-1.39-1-2.75-1.55-4.12A5.15,5.15,0,0,0,56.3,16c-2.8,8.14-5.61,16.28-8.37,24.44a2.23,2.23,0,0,1-2.42,1.77c-8.27.2-16.53.5-24.8.78-1.09,0-2.18.16-3.26.24a5.22,5.22,0,0,0,1.5,1.49c7,5,14.06,10,21.12,15a1.88,1.88,0,0,1,.85,2.48C38.74,69,36.66,75.8,34.54,82.59,33.68,85.32,32.8,88,31.85,91Z"/><path class="cls-1" d="M43.13,52.19c0-4.49,2.5-7.62,6.39-8.08,2.76-.32,5,1,7,2.8.74.68,1.1.68,1.92.06a15.32,15.32,0,0,1,4.27-2.5c5-1.66,9.8,2.72,9.13,8.15-.64,5.18-3.49,9.06-7.28,12.31A46.49,46.49,0,0,1,58.46,69a2.11,2.11,0,0,1-1.76.1C50.1,65.66,44.88,61,43.25,53.31A7.79,7.79,0,0,1,43.13,52.19ZM70.3,51.9c0-.42,0-.84,0-1.25.26-2.87-3-5.74-6.49-5.09a10.23,10.23,0,0,0-4.93,2.7,1.75,1.75,0,0,1-2.73,0,9.85,9.85,0,0,0-5.21-2.7,5.34,5.34,0,0,0-6.15,4,11,11,0,0,0,1.09,7.7c2.13,4.23,5.51,7.24,9.4,9.77a3.64,3.64,0,0,0,4.37,0,27.34,27.34,0,0,0,7.5-6.69C69,57.84,70.52,55.19,70.3,51.9Z"/><path class="cls-2" d="M57.52,3A54.52,54.52,0,1,1,3,57.52,54.58,54.58,0,0,1,57.52,3m0-3A57.52,57.52,0,1,0,115,57.52,57.52,57.52,0,0,0,57.52,0Z"/></g><path class="cls-2" d="M148.23,39.42h27.93v4.9H153.5V58.25h21.15v4.9H153.5V79h23.79v4.9H148.23Z"/><path class="cls-2" d="M208,39.42h7.85l15.06,34.84H231l15.19-34.84h7.66V83.86h-5.27V46.57h-.13L232.53,83.86h-3.2L213.38,46.57h-.13V83.86H208Z"/><path class="cls-2" d="M287.45,39.42h7.85l15.06,34.84h.13l15.19-34.84h7.66V83.86h-5.27V46.57h-.13L312,83.86h-3.2L292.85,46.57h-.13V83.86h-5.27Z"/><path class="cls-2" d="M381.35,39.42h5L405.2,83.86h-6.15l-4.52-10.92H372.31l-4.58,10.92h-6Zm2.39,6.78h-.13L374.38,68h18.14Z"/><path class="cls-2" d="M454.73,47.26a7.77,7.77,0,0,0-3.52-3.11,11.2,11.2,0,0,0-4.58-1,13.69,13.69,0,0,0-3.45.44,10.25,10.25,0,0,0-3,1.32A6.59,6.59,0,0,0,438,47.26a6.77,6.77,0,0,0-.82,3.39,7.05,7.05,0,0,0,.47,2.67,5.61,5.61,0,0,0,1.54,2.1A11.41,11.41,0,0,0,442,57.18a39.69,39.69,0,0,0,4.46,1.63q2.57.82,5,1.76A16.83,16.83,0,0,1,455.76,63a10.6,10.6,0,0,1,3,3.61,13.62,13.62,0,0,1-.22,11.2,12.08,12.08,0,0,1-3.48,4,15.09,15.09,0,0,1-5,2.38,21.69,21.69,0,0,1-5.84.79,22.29,22.29,0,0,1-3.89-.35,18.69,18.69,0,0,1-3.73-1.07,15.08,15.08,0,0,1-3.36-1.88,11.33,11.33,0,0,1-2.7-2.86l4.52-3.7a9.29,9.29,0,0,0,4,3.7,12.28,12.28,0,0,0,5.46,1.26,12.16,12.16,0,0,0,3.42-.5A10.36,10.36,0,0,0,451,78.11a8,8,0,0,0,2.26-2.42,6.27,6.27,0,0,0,.88-3.33,7.09,7.09,0,0,0-.69-3.36,6.19,6.19,0,0,0-2.13-2.23,16.48,16.48,0,0,0-3.64-1.69l-5.15-1.76a32.52,32.52,0,0,1-4.39-1.73,13.46,13.46,0,0,1-3.48-2.38,10.17,10.17,0,0,1-2.32-3.39,12,12,0,0,1-.85-4.74,11.44,11.44,0,0,1,4.65-9.57A15.42,15.42,0,0,1,441,39.1a20.48,20.48,0,0,1,12.52.35,13.46,13.46,0,0,1,5.56,4Z"/><path class="cls-2" d="M511.72,85a24.11,24.11,0,0,1-9.32-1.76,22.4,22.4,0,0,1-7.34-4.86A21.85,21.85,0,0,1,490.22,71a26,26,0,0,1,0-18.64,21.85,21.85,0,0,1,4.83-7.41A22.4,22.4,0,0,1,502.4,40,25.6,25.6,0,0,1,521,40a22.4,22.4,0,0,1,7.34,4.86,21.87,21.87,0,0,1,4.83,7.41,26,26,0,0,1,0,18.64,21.87,21.87,0,0,1-4.83,7.41A22.4,22.4,0,0,1,521,83.23,24.11,24.11,0,0,1,511.72,85Zm0-4.9a17.26,17.26,0,0,0,7.12-1.44,16.8,16.8,0,0,0,5.55-4A18.06,18.06,0,0,0,528,68.82a20.71,20.71,0,0,0,0-14.37,18.09,18.09,0,0,0-3.61-5.87,16.83,16.83,0,0,0-5.55-4,18.3,18.3,0,0,0-14.25,0,16.82,16.82,0,0,0-5.56,4,18.07,18.07,0,0,0-3.61,5.87,20.72,20.72,0,0,0,0,14.37A18,18,0,0,0,499,74.69a16.78,16.78,0,0,0,5.56,4A17.26,17.26,0,0,0,511.72,80.09Z"/><path class="cls-2" d="M566,39.42h27.56v4.9H571.23V59h20.71v4.9H571.23v20H566Z"/><path class="cls-2" d="M623.39,39.42h5.27V83.86h-5.27Z"/><path class="cls-2" d="M676.68,39.42h5l18.89,44.44h-6.15l-4.52-10.92H667.64l-4.58,10.92h-6Zm2.39,6.78h-.13L669.71,68h18.14Z"/></g></g></svg>