<svg xmlns="http://www.w3.org/2000/svg" viewBox="0 0 595.28 595.28"><defs><style>.cls-1,.cls-2{fill:#262424;}.cls-1{fill-rule:evenodd;}</style></defs><title>Asset 1</title><g id="Layer_2" data-name="Layer 2"><g id="Layer_1-2" data-name="Layer 1"><g id="UrCVuP"><path class="cls-1" d="M4.31,281.67"/><path class="cls-1" d="M296.89,456.87c-5,9.27-9.57,19.37-15.52,28.61-8.73,13.57-21.6,22.79-37.4,25.18-14.1,2.14-28.66,1.3-43,1.61-18.79.4-37.6.43-56.38,1-5.25.17-7.73-1.29-9.23-6.52-4.92-17.16-10.43-34.15-15.62-51.24-3.91-12.89-9.17-25.61-11.15-38.8-3.4-22.66,4.52-42.33,20.78-58.48,4.69-4.66,9.71-9,14.33-13.25-9.43-1.8-19.32-2.81-28.64-5.67-15.73-4.81-28.78-14.19-36.27-29.06C73.3,299.42,69.61,287.61,65.64,276c-5.93-17.27-11.39-34.71-17.14-52-.59-1.79-1.86-3.35-2.77-5-2.45-4.54-1.15-9.45,2.65-11.94,14-9.21,28.11-18.36,41.89-27.92,8.79-6.1,16.9-13.16,25.65-19.32,18.64-13.14,39.16-17,60.81-9.42,10.39,3.64,20,9.51,29,13.92-1.44-8-4.18-17.28-4.56-26.61-1-24.26,8-44.11,28.08-58.69,22.38-16.25,44.47-32.91,66.59-49.52,3.31-2.48,5.74-2.56,9.15,0,21.14,16.11,42,32.65,63.85,47.78,24,16.63,32.75,39.11,29.44,67.19-.77,6.58-2.4,13.06-3.77,20.34,1.67-.95,3.25-1.71,4.7-2.66,17.1-11.28,35.55-16.4,56-12.14,10.49,2.19,19.7,7,28.32,13.45,19.6,14.53,39.43,28.76,59.24,43,10.85,7.81,10.37,7.52,5.86,19.84-6.66,18.19-12.91,36.56-18.49,55.11C524,301.59,517,320.77,497.92,332.71c-12.21,7.64-25.55,11.26-39.78,12.11-2.13.13-4.26.2-7.53.36,4.1,3.8,7.38,7,10.85,10C484.08,374.91,489,404.8,480,430.63c-8.65,25-15.14,50.8-22.95,76.14-.66,2.14-4.11,4.85-6.29,4.88-28.69.39-57.4.79-86.09.29-26.48-.46-45.69-13.79-58.69-36.38C302.42,469.32,299.66,462.61,296.89,456.87ZM377.14,190.1,375.4,189a43,43,0,0,1,2.22-6.51c7.19-13.64,13-27.68,14.14-43.31,1.43-20.26-4.55-38.22-20.32-50.87-21.88-17.54-45.08-33.43-67.65-50.12-2.72-2-4.53-1.89-7.32.19-20.79,15.47-41.64,30.88-62.71,46-18.2,13-26.5,30.7-25.67,52.8.72,19.39,8.78,36.23,18.62,52.45,1,1.57.34,4.08.45,6.15-1.74-.81-3.8-1.27-5.17-2.5-9.92-8.82-19-18.86-29.7-26.5-18.21-12.95-38.78-16.26-59.52-6.78-10,4.58-18.83,12-27.9,18.46-7.86,5.63-15.11,12.11-23,17.64-8.1,5.65-16.8,10.45-25,16-1.33.9-2.35,4-1.84,5.59,5.55,17,11.57,33.81,17.19,50.76,3.58,10.78,5.26,22.45,10.34,32.43,11.76,23.08,31.55,35.09,57.59,34.42,13.46-.35,26.85-3.34,40.3-4.87,2.12-.24,4.4,1,6.61,1.48-1.65,1.54-3,3.86-5,4.48a123.9,123.9,0,0,0-41.75,22.58c-15,12.41-23.67,27.75-23.89,48.07-.16,15.14,6.57,27.93,10.47,41.7,5,17.52,10,35,15.36,52.45.5,1.62,3.38,3.51,5.18,3.54,7.45.09,14.91-.81,22.37-.76,19.13.14,38.26.87,57.39.86,24.27,0,41.8-11.88,53.45-32.53,9.21-16.34,11.87-34.43,12.42-53,.08-2.7,1.53-5.36,2.58-8.81,1.88,1.7,2.58,2,2.78,2.57a16.49,16.49,0,0,1,.68,3.12c2.37,13.51,3.11,27.55,7.41,40.4C316,485,334.12,505,370.11,503.8c10.55-.35,21.11-.85,31.67-1,15.87-.17,31.75,0,47.79,0,.35-1.51.62-3.17,1.12-4.77,7.93-25.24,16.44-50.32,23.66-75.76,5.13-18.06,2.2-35.49-8.94-51.07-10.93-15.3-26.27-24.59-43.19-31.8-1.87-.8-3.24-2.77-4.85-4.2,2-.44,4-1.38,6-1.22,11.81,1,23.63,3.34,35.38,3,29.12-.75,52.75-17.89,60.86-46.84,6.61-23.57,15.32-46.54,22.82-69.86.56-1.73-.45-5.1-1.88-6.15-21.89-16.12-43.77-32.27-66.06-47.83-17.61-12.3-36.93-13.15-56.66-5.69C404,165.85,393,175.18,382.68,185.47,381,187.17,379,188.57,377.14,190.1Z"/><path class="cls-1" d="M93.86,216.32q67.06-2.26,134.13-4.47c12.57-.39,12.46-.23,16.47-12,6.5-19.15,13.16-38.24,19.77-57.35,9.22-26.6,18.41-53.22,27.8-79.77.74-2.09,2.9-3.68,4.4-5.49,1.36,2,3.2,3.86,4,6.07q14,38.92,27.65,77.94c7.11,20.29,14.18,40.58,21,61,1.58,4.75,3.75,6.62,9,6.92,32.33,1.82,64.65,4.1,97,6.21,20.48,1.35,41,2.6,61.43,4.14,2,.15,3.8,2,5.7,3.08-1.27,1.77-2.17,4.06-3.86,5.24Q455,271.87,391.59,315.67c-3.29,2.27-4.53,4.2-3.27,8.32,4.63,15.25,8.82,30.63,13.24,45.94q13.25,45.91,26.57,91.79c1.44,5,3.19,9.83,4.36,14.86.47,2-.24,4.35-.42,6.55-2.35-.66-5.15-.71-7-2.07-9.72-7.21-19.16-14.77-28.76-22.14Q347.51,421.45,298.71,384c-2.79-2.15-4.61-1.9-7.3.17q-43.39,33.36-87,66.49c-13.74,10.47-27.47,21-41.41,31.16-1.69,1.24-4.59.81-6.94,1.16.13-2-.12-4.05.44-5.88q19.29-62.64,38.75-125.23,4.7-15.1,9.89-30.06c1.28-3.66.58-6-2.57-8.27-26.27-18.6-52.44-37.32-78.7-55.93C108.06,246.36,92.06,235.33,76.26,224c-1.46-1-2-3.44-2.91-5.2,1.65-.71,3.27-1.95,5-2,5.18-.27,10.37-.09,15.56-.09C93.87,216.56,93.86,216.44,93.86,216.32ZM164.81,471c2.33-.74,3-.77,3.48-1.12q37.93-28.77,75.83-57.59c15.63-11.91,31.09-24,46.84-35.79,1.69-1.26,5.68-1.75,7.13-.65,36.79,27.91,73.37,56.1,110,84.2,4.43,3.4,9.06,6.53,13.6,9.79a15.31,15.31,0,0,0-.06-8c-3.19-11.19-6.51-22.34-9.76-33.51-10.42-35.8-20.91-71.58-31-107.45-.6-2.14.91-6,2.71-7.46,4.95-4.1,10.62-7.33,15.93-11q50.64-34.95,101.24-70c2.48-1.72,4.78-3.71,7.16-5.58-14.16-2.2-27.67-2.94-41.17-3.82-37.72-2.48-75.43-5.11-113.16-7.43-4.88-.3-7.59-2.18-9-6.62-2.25-7-4.53-13.93-6.92-20.85q-16.26-47-32.62-93.89c-2.51-7.17-5.34-14.22-8-21.33a26.63,26.63,0,0,0-5.63,9.85C276.82,124.91,262.27,167,248,209.24c-2.19,6.47-5.42,9-12.54,9.17-42.79,1-85.56,2.58-128.34,4-5.63.19-11.26.82-16.88,1.24A27,27,0,0,0,98,231.41c36.4,25.94,72.75,52,109.3,77.69,5.08,3.58,6.31,6.87,4.4,12.85-11.2,35.08-22,70.29-33,105.44C174.31,441.51,169.73,455.57,164.81,471Z"/><path class="cls-1" d="M223.19,270.07c0-23.25,12.95-39.44,33.07-41.8,14.3-1.68,26,5.24,36.17,14.48,3.85,3.51,5.72,3.54,9.95.33,6.77-5.15,14.15-10.31,22.11-12.94,26-8.6,50.72,14.09,47.27,42.16-3.3,26.83-18.07,46.88-37.65,63.69-9.56,8.2-20.8,14.51-31.61,21.13-2.33,1.43-6.73,1.76-9.1.52-34.15-17.87-61.18-42-69.58-81.8A40.34,40.34,0,0,1,223.19,270.07Zm140.59-1.48c0-2.16-.17-4.33,0-6.47,1.37-14.83-15.33-29.72-33.58-26.35-10.41,1.93-18.07,7.46-25.52,14-5.17,4.52-8.86,4.48-14.11,0-7.88-6.73-16-12.58-27-14-16.85-2.11-28.66,7.74-31.84,20.59-3.42,13.83-.7,27.2,5.66,39.86,11,21.88,28.5,37.45,48.66,50.55,7.73,5,14.7,5.17,22.63.13,14.87-9.45,28.24-20.39,38.81-34.61C357.21,299.29,364.94,285.59,363.78,268.59Z"/><path class="cls-2" d="M297.64,13.87c156.47,0,283.77,127.3,283.77,283.77S454.11,581.41,297.64,581.41,13.87,454.11,13.87,297.64,141.17,13.87,297.64,13.87m0-13.87C133.26,0,0,133.26,0,297.64S133.26,595.28,297.64,595.28,595.28,462,595.28,297.64,462,0,297.64,0Z"/></g></g></g></svg>