<?xml version="1.0" encoding="utf-8"?>
<!-- Generator: Adobe Illustrator 23.0.5, SVG Export Plug-In . SVG Version: 6.00 Build 0)  -->
<svg version="1.1" id="Layer_1" xmlns="http://www.w3.org/2000/svg" xmlns:xlink="http://www.w3.org/1999/xlink" x="0px" y="0px"
	 viewBox="0 0 862.9 115" style="enable-background:new 0 0 862.9 115;" xml:space="preserve">
<style type="text/css">
	.st0{fill:#262424;}
	.st1{fill:#231F20;}
	.st2{fill:none;stroke:#231F20;stroke-width:6;stroke-miterlimit:10;}
</style>
<g>
	<g id="Layer_1-2">
		<path class="st0" d="M164.1,32.2h33.2v5.8h-26.9v16.5h25.1v5.8h-25.1v18.8h28.3v5.8h-34.5V32.2z"/>
		<path class="st0" d="M235.1,32.2h9.3l17.9,41.4h0.1l18-41.4h9.1V85h-6.3V40.7h-0.2L264.2,85h-3.8l-18.9-44.3h-0.2V85h-6.2V32.2z"
			/>
		<path class="st0" d="M329.5,32.2h9.3l17.9,41.4h0.2l18-41.4h9.1V85h-6.3V40.7h-0.2L358.6,85h-3.8l-18.9-44.3h-0.2V85h-6.3V32.2z"
			/>
		<path class="st0" d="M441,32.2h5.9L469.4,85h-7.3l-5.4-13h-26.4l-5.4,13h-7.1L441,32.2z M443.9,40.3h-0.2l-11,25.9h21.6
			L443.9,40.3z"/>
		<path class="st0" d="M528.2,41.6c-1-1.6-2.4-2.9-4.2-3.7c-1.7-0.8-3.6-1.2-5.4-1.2c-1.4,0-2.8,0.2-4.1,0.5
			c-1.3,0.3-2.5,0.9-3.6,1.6c-1.1,0.7-2,1.7-2.6,2.8c-0.7,1.2-1,2.6-1,4c0,1.1,0.2,2.2,0.6,3.2c0.4,1,1,1.8,1.8,2.5
			c1,0.9,2.1,1.6,3.3,2.1c1.7,0.8,3.5,1.4,5.3,1.9c2,0.6,4,1.3,5.9,2.1c1.8,0.7,3.6,1.7,5.1,2.9c1.5,1.1,2.7,2.6,3.6,4.3
			c1.8,4.3,1.7,9.1-0.3,13.3c-1,1.9-2.4,3.5-4.1,4.8c-1.8,1.3-3.8,2.3-5.9,2.8c-2.3,0.6-4.6,0.9-6.9,0.9c-1.5,0-3.1-0.1-4.6-0.4
			c-1.5-0.3-3-0.7-4.4-1.3c-1.4-0.6-2.8-1.3-4-2.2c-1.3-0.9-2.3-2.1-3.2-3.4l5.4-4.4c1.1,1.9,2.8,3.4,4.8,4.4c2,1,4.2,1.5,6.5,1.5
			c1.4,0,2.7-0.2,4.1-0.6c1.3-0.4,2.5-1,3.6-1.7c1.1-0.8,2-1.7,2.7-2.9c0.7-1.2,1.1-2.6,1-4c0.1-1.4-0.2-2.7-0.8-4
			c-0.6-1.1-1.5-2-2.5-2.6c-1.4-0.8-2.8-1.5-4.3-2l-6.1-2.1c-1.8-0.6-3.5-1.2-5.2-2.1c-1.5-0.7-2.9-1.7-4.1-2.8
			c-1.2-1.1-2.1-2.5-2.8-4c-0.7-1.8-1.1-3.7-1-5.6c-0.1-4.5,1.9-8.7,5.5-11.4c1.7-1.3,3.7-2.3,5.8-2.9c4.9-1.4,10.1-1.3,14.9,0.4
			c2.6,1,4.9,2.6,6.6,4.8L528.2,41.6z"/>
		<path class="st0" d="M595.9,86.4c-3.8,0-7.6-0.7-11.1-2.1c-3.3-1.3-6.2-3.3-8.7-5.8c-2.5-2.5-4.4-5.5-5.8-8.8
			c-2.7-7.1-2.7-15,0-22.1c1.3-3.3,3.2-6.3,5.7-8.8c2.5-2.5,5.5-4.5,8.7-5.9c7.1-2.8,15-2.8,22.1,0c3.3,1.3,6.2,3.3,8.7,5.8
			c2.5,2.5,4.4,5.5,5.7,8.8c2.7,7.1,2.7,15,0,22.1c-1.3,3.3-3.2,6.3-5.7,8.8c-2.5,2.5-5.5,4.5-8.7,5.8
			C603.4,85.7,599.7,86.4,595.9,86.4z M595.9,80.6c2.9,0,5.8-0.5,8.5-1.7c2.5-1.1,4.7-2.7,6.6-4.8c1.9-2,3.3-4.4,4.3-6.9
			c2-5.5,2-11.6,0-17.1c-1-2.6-2.4-4.9-4.3-7c-1.8-2-4.1-3.6-6.6-4.8c-5.4-2.3-11.5-2.3-16.9,0c-2.5,1.1-4.8,2.7-6.6,4.8
			c-1.9,2-3.3,4.4-4.3,7c-2,5.5-2,11.6,0,17.1c1,2.6,2.4,4.9,4.3,7c1.9,2,4.1,3.6,6.6,4.8C590.1,80.1,593,80.6,595.9,80.6
			L595.9,80.6z"/>
		<path class="st0" d="M660.4,32.2h32.7v5.8h-26.5v17.4h24.6v5.8h-24.6v23.8h-6.2V32.2z"/>
		<path class="st0" d="M728.6,32.2h6.3V85h-6.3V32.2z"/>
		<path class="st0" d="M791.9,32.2h5.9L820.3,85H813l-5.4-13h-26.4l-5.4,13h-7.1L791.9,32.2z M794.7,40.3h-0.2l-11,25.9h21.6
			L794.7,40.3z"/>
	</g>
</g>
<g id="g32" transform="matrix(1.25,0,0,-1.25,374.28509,463.3239)">
	<path id="path4849" class="st1" d="M-272.8,293.9c-0.4,0-0.9,0-1.2,0.3c-0.4,0.3-0.6,0.7-0.7,1.1c-0.7,2.4-1.5,4.8-2.2,7.2
		c-0.5,1.8-1.3,3.6-1.6,5.5c-0.5,3.4,0.7,6.4,3.1,8.7c0.4,0.4,0.7,0.7,1.1,1c-0.9,0.2-1.9,0.3-2.8,0.6c-2.3,0.7-4.3,2.1-5.5,4.4
		c-0.8,1.6-1.3,3.3-1.9,4.9c-0.8,2.4-1.6,4.9-2.4,7.3c0,0.1-0.2,0.3-0.3,0.6c0,0,0,0,0,0c-0.5,0.9-0.2,2,0.6,2.5
		c2,1.3,3.9,2.6,5.8,3.9c1.2,0.8,2.3,1.8,3.6,2.7c2.7,1.9,5.9,2.5,9.1,1.4c1.1-0.4,2.1-0.9,3-1.4c-0.2,0.8-0.4,1.6-0.4,2.6
		c-0.1,3.6,1.2,6.6,4.2,8.8c3.1,2.3,6.2,4.6,9.3,6.9c0,0,0,0,0,0c0.3,0.2,0.6,0.4,1,0.4c0.4,0,0.7-0.2,1-0.4c3-2.3,5.9-4.6,8.9-6.7
		c3.5-2.4,4.9-5.9,4.4-10c-0.1-0.5-0.2-1-0.3-1.5c2.3,1.4,4.9,2.1,7.7,1.5c1.6-0.3,3-1.1,4.2-2c2.7-2,5.5-4,8.3-6
		c0.4-0.3,0.7-0.5,0.9-0.7c0.2-0.2,0.5-0.5,0.5-0.8c0.1-0.3,0-0.7,0-1c-0.1-0.3-0.2-0.6-0.4-1.1c-0.9-2.5-1.8-5.1-2.6-7.7
		c-0.9-2.8-1.9-5.7-4.8-7.5c0,0,0,0,0,0c-1.7-1.1-3.5-1.6-5.5-1.7c0.1-0.1,0.3-0.3,0.4-0.4c0,0,0,0,0,0c3.4-2.9,4.1-7.4,2.8-11.2
		c-1.2-3.5-2.1-7.1-3.2-10.6c-0.1-0.4-0.3-0.6-0.6-0.8c-0.2-0.2-0.5-0.4-0.9-0.4c-4-0.1-8-0.1-12.1,0c-3.9,0.1-6.9,2.1-8.8,5.4
		c-0.3,0.5-0.5,1-0.8,1.5c-0.5-1-1-2-1.6-3c-1.3-2-3.3-3.4-5.7-3.8c-2.1-0.3-4.1-0.2-6.1-0.2C-267.6,294-270.2,293.9-272.8,293.9
		L-272.8,293.9z M-272.1,297c3.8,2.9,7.6,5.7,11.3,8.6c2.6,2,5.1,4,7.8,5.9c0.3,0.2,0.6,0.3,1,0.3c0.3,0,0.7,0.1,1.1-0.2
		c0,0,0,0,0,0c6.1-4.6,12.2-9.3,18.2-14c0.3-0.2,0.6-0.4,0.9-0.7c-0.5,1.7-1,3.4-1.5,5.1c-1.7,5.9-3.5,11.9-5.1,17.8c0,0,0,0,0,0
		c-0.1,0.4,0,0.8,0.1,1.1s0.3,0.6,0.6,0.9c0.9,0.7,1.9,1.3,2.7,1.9c5.5,3.8,10.9,7.5,16.4,11.3c-1.6,0.2-3.2,0.3-4.9,0.5
		c-6.3,0.4-12.5,0.8-18.8,1.2c0,0,0,0,0,0c-0.5,0-1,0.1-1.4,0.4c-0.4,0.3-0.7,0.7-0.8,1.2c-0.4,1.2-0.7,2.3-1.1,3.4
		c-1.8,5.2-3.6,10.4-5.4,15.6c-0.2,0.7-0.5,1.4-0.8,2c0,0-0.1-0.1-0.1-0.1v0c-2.4-7-4.8-14-7.2-21c-0.2-0.6-0.5-1.2-1-1.5
		c-0.5-0.4-1.1-0.5-1.8-0.5c-7.1-0.2-14.2-0.4-21.3-0.7c-0.4,0-0.8-0.1-1.1-0.1c0,0,0,0,0,0l0,0c6-4.3,12.1-8.6,18.1-12.9
		c0.5-0.3,0.9-0.7,1.1-1.3c0.2-0.5,0.1-1.1-0.1-1.7c-1.9-5.8-3.6-11.6-5.5-17.5C-271,300.6-271.5,298.8-272.1,297L-272.1,297z
		 M-251.5,316c0.4,0,0.9,0.1,1.5,0.5c2.4,1.5,4.6,3.3,6.2,5.5c1.6,2.1,2.7,4.2,2.5,6.7c0,0,0,0,0,0.1c0,0.3,0,0.7,0,1.1
		c0.2,1.9-2.1,4-4.7,3.6c-1.5-0.3-2.7-1.1-3.9-2.1c-0.5-0.4-1-0.7-1.7-0.7c-0.6,0-1.2,0.3-1.7,0.7c-1.3,1.1-2.5,1.9-4.1,2.1
		c-2.5,0.3-4-1.1-4.4-2.8c-0.5-2.1-0.1-4.1,0.9-6.1c1.7-3.5,4.5-6,7.8-8.1C-252.4,316.1-251.9,316-251.5,316L-251.5,316z"/>
</g>
<circle class="st2" cx="59.9" cy="57.3" r="48.1"/>
</svg>
