<?xml version="1.0" encoding="utf-8"?>
<!-- Generator: Adobe Illustrator 23.0.5, SVG Export Plug-In . SVG Version: 6.00 Build 0)  -->
<svg version="1.1" id="Layer_1" xmlns="http://www.w3.org/2000/svg" xmlns:xlink="http://www.w3.org/1999/xlink" x="0px" y="0px"
	 viewBox="0 0 862.9 115" style="enable-background:new 0 0 862.9 115;" xml:space="preserve">
<style type="text/css">
	.st0{fill:#262424;}
	.st1{fill-rule:evenodd;clip-rule:evenodd;fill:#262424;}
</style>
<g>
	<g id="Layer_1-2">
		<path class="st0" d="M164.1,32.2h33.2v5.8h-26.9v16.5h25.1v5.8h-25.1v18.8h28.3v5.8h-34.5V32.2z"/>
		<path class="st0" d="M235.1,32.2h9.3l17.9,41.4h0.1l18-41.4h9.1V85h-6.3V40.7h-0.2L264.2,85h-3.8l-18.9-44.3h-0.2V85h-6.2V32.2z"
			/>
		<path class="st0" d="M329.5,32.2h9.3l17.9,41.4h0.2l18-41.4h9.1V85h-6.3V40.7h-0.2L358.6,85h-3.8l-18.9-44.3h-0.2V85h-6.3V32.2z"
			/>
		<path class="st0" d="M441,32.2h5.9L469.4,85h-7.3l-5.4-13h-26.4l-5.4,13h-7.1L441,32.2z M443.9,40.3h-0.2l-11,25.9h21.6
			L443.9,40.3z"/>
		<path class="st0" d="M528.2,41.6c-1-1.6-2.4-2.9-4.2-3.7c-1.7-0.8-3.6-1.2-5.4-1.2c-1.4,0-2.8,0.2-4.1,0.5
			c-1.3,0.3-2.5,0.9-3.6,1.6c-1.1,0.7-2,1.7-2.6,2.8c-0.7,1.2-1,2.6-1,4c0,1.1,0.2,2.2,0.6,3.2c0.4,1,1,1.8,1.8,2.5
			c1,0.9,2.1,1.6,3.3,2.1c1.7,0.8,3.5,1.4,5.3,1.9c2,0.6,4,1.3,5.9,2.1c1.8,0.7,3.6,1.7,5.1,2.9c1.5,1.1,2.7,2.6,3.6,4.3
			c1.8,4.3,1.7,9.1-0.3,13.3c-1,1.9-2.4,3.5-4.1,4.8c-1.8,1.3-3.8,2.3-5.9,2.8c-2.3,0.6-4.6,0.9-6.9,0.9c-1.5,0-3.1-0.1-4.6-0.4
			c-1.5-0.3-3-0.7-4.4-1.3c-1.4-0.6-2.8-1.3-4-2.2c-1.3-0.9-2.3-2.1-3.2-3.4l5.4-4.4c1.1,1.9,2.8,3.4,4.8,4.4c2,1,4.2,1.5,6.5,1.5
			c1.4,0,2.7-0.2,4.1-0.6c1.3-0.4,2.5-1,3.6-1.7c1.1-0.8,2-1.7,2.7-2.9c0.7-1.2,1.1-2.6,1-4c0.1-1.4-0.2-2.7-0.8-4
			c-0.6-1.1-1.5-2-2.5-2.6c-1.4-0.8-2.8-1.5-4.3-2l-6.1-2.1c-1.8-0.6-3.5-1.2-5.2-2.1c-1.5-0.7-2.9-1.7-4.1-2.8
			c-1.2-1.1-2.1-2.5-2.8-4c-0.7-1.8-1.1-3.7-1-5.6c-0.1-4.5,1.9-8.7,5.5-11.4c1.7-1.3,3.7-2.3,5.8-2.9c4.9-1.4,10.1-1.3,14.9,0.4
			c2.6,1,4.9,2.6,6.6,4.8L528.2,41.6z"/>
		<path class="st0" d="M595.9,86.4c-3.8,0-7.6-0.7-11.1-2.1c-3.3-1.3-6.2-3.3-8.7-5.8c-2.5-2.5-4.4-5.5-5.8-8.8
			c-2.7-7.1-2.7-15,0-22.1c1.3-3.3,3.2-6.3,5.7-8.8c2.5-2.5,5.5-4.5,8.7-5.9c7.1-2.8,15-2.8,22.1,0c3.3,1.3,6.2,3.3,8.7,5.8
			c2.5,2.5,4.4,5.5,5.7,8.8c2.7,7.1,2.7,15,0,22.1c-1.3,3.3-3.2,6.3-5.7,8.8c-2.5,2.5-5.5,4.5-8.7,5.8
			C603.4,85.7,599.7,86.4,595.9,86.4z M595.9,80.6c2.9,0,5.8-0.5,8.5-1.7c2.5-1.1,4.7-2.7,6.6-4.8c1.9-2,3.3-4.4,4.3-6.9
			c2-5.5,2-11.6,0-17.1c-1-2.6-2.4-4.9-4.3-7c-1.8-2-4.1-3.6-6.6-4.8c-5.4-2.3-11.5-2.3-16.9,0c-2.5,1.1-4.8,2.7-6.6,4.8
			c-1.9,2-3.3,4.4-4.3,7c-2,5.5-2,11.6,0,17.1c1,2.6,2.4,4.9,4.3,7c1.9,2,4.1,3.6,6.6,4.8C590.1,80.1,593,80.6,595.9,80.6
			L595.9,80.6z"/>
		<path class="st0" d="M660.4,32.2h32.7v5.8h-26.5v17.4h24.6v5.8h-24.6v23.8h-6.2V32.2z"/>
		<path class="st0" d="M728.6,32.2h6.3V85h-6.3V32.2z"/>
		<path class="st0" d="M791.9,32.2h5.9L820.3,85H813l-5.4-13h-26.4l-5.4,13h-7.1L791.9,32.2z M794.7,40.3h-0.2l-11,25.9h21.6
			L794.7,40.3z"/>
	</g>
</g>
<g id="layer1_1_" transform="translate(-293.81884,-463.3239)">
	<g id="g20_1_" transform="matrix(1.25,0,0,-1.25,395.77858,514.7179)">
		<path id="path22" class="st1" d="M-21.6,11.5c-0.1,0.1-0.2,0.1-0.3,0.2c0.1,0.3,0.2,0.7,0.3,1c1.1,2.1,2,4.2,2.2,6.6
			c0.2,3.1-0.7,5.8-3.1,7.8c-3.3,2.7-6.9,5.1-10.3,7.7c-0.4,0.3-0.7,0.3-1.1,0c-3.2-2.4-6.4-4.7-9.6-7c-2.8-2-4.1-4.7-3.9-8.1
			c0.1-3,1.3-5.5,2.8-8c0.1-0.2,0.1-0.6,0.1-0.9c-0.3,0.1-0.6,0.2-0.8,0.4c-1.5,1.3-2.9,2.9-4.5,4.1c-2.8,2-5.9,2.5-9.1,1
			c-1.5-0.7-2.9-1.8-4.3-2.8c-1.2-0.9-2.3-1.9-3.5-2.7c-1.2-0.9-2.6-1.6-3.8-2.4c-0.2-0.1-0.4-0.6-0.3-0.9c0.8-2.6,1.8-5.2,2.6-7.8
			c0.5-1.6,0.8-3.4,1.6-5c1.8-3.5,4.8-5.4,8.8-5.3c2.1,0.1,4.1,0.5,6.2,0.7c0.3,0,0.7-0.1,1-0.2c-0.3-0.2-0.5-0.6-0.8-0.7
			c-2.3-0.7-4.5-1.9-6.4-3.5c-2.3-1.9-3.6-4.2-3.7-7.3c0-2.3,1-4.3,1.6-6.4c0.8-2.7,1.5-5.4,2.3-8c0.1-0.2,0.5-0.5,0.8-0.5
			c1.1,0,2.3,0.1,3.4,0.1c2.9,0,5.8-0.1,8.8-0.1c3.7,0,6.4,1.8,8.2,5c1.4,2.5,1.8,5.3,1.9,8.1c0,0.4,0.2,0.8,0.4,1.3
			c0.3-0.3,0.4-0.3,0.4-0.4c0.1-0.1,0.1-0.3,0.1-0.5c0.4-2.1,0.5-4.2,1.1-6.2c1.5-4.3,4.2-7.4,9.7-7.2c1.6,0.1,3.2,0.1,4.8,0.1
			c2.4,0,4.9,0,7.3,0c0.1,0.2,0.1,0.5,0.2,0.7c1.2,3.9,2.5,7.7,3.6,11.6c0.8,2.8,0.3,5.4-1.4,7.8c-1.7,2.3-4,3.8-6.6,4.9
			c-0.3,0.1-0.5,0.4-0.7,0.6c0.3,0.1,0.6,0.2,0.9,0.2c1.8-0.1,3.6-0.5,5.4-0.5c4.5,0.1,8.1,2.7,9.3,7.2c1,3.6,2.3,7.1,3.5,10.7
			c0.1,0.3-0.1,0.8-0.3,0.9c-3.3,2.5-6.7,4.9-10.1,7.3c-2.7,1.9-5.6,2-8.7,0.9c-2.1-0.8-3.8-2.2-5.4-3.8C-21,12-21.3,11.8-21.6,11.5
			 M-33.8-29.2c-0.8-1.4-1.5-3-2.4-4.4c-1.3-2.1-3.3-3.5-5.7-3.8c-2.2-0.3-4.4-0.2-6.6-0.2c-2.9-0.1-5.7-0.1-8.6-0.2
			c-0.8,0-1.2,0.2-1.4,1c-0.8,2.6-1.6,5.2-2.4,7.8c-0.6,2-1.4,3.9-1.7,5.9c-0.5,3.5,0.7,6.5,3.2,8.9c0.7,0.7,1.5,1.4,2.2,2
			c-1.4,0.3-3,0.4-4.4,0.9c-2.4,0.7-4.4,2.2-5.5,4.4c-0.8,1.7-1.4,3.5-2,5.2c-0.9,2.6-1.7,5.3-2.6,8c-0.1,0.3-0.3,0.5-0.4,0.8
			c-0.4,0.7-0.2,1.4,0.4,1.8c2.1,1.4,4.3,2.8,6.4,4.3c1.3,0.9,2.6,2,3.9,3c2.9,2,6,2.6,9.3,1.4c1.6-0.6,3.1-1.5,4.4-2.1
			c-0.2,1.2-0.6,2.6-0.7,4.1c-0.1,3.7,1.2,6.7,4.3,9c3.4,2.5,6.8,5,10.2,7.6c0.5,0.4,0.9,0.4,1.4,0c3.2-2.5,6.4-5,9.8-7.3
			c3.7-2.5,5-6,4.5-10.3c-0.1-1-0.4-2-0.6-3.1c0.3,0.1,0.5,0.3,0.7,0.4c2.6,1.7,5.4,2.5,8.6,1.9c1.6-0.3,3-1.1,4.3-2.1
			c3-2.2,6-4.4,9.1-6.6c1.7-1.2,1.6-1.1,0.9-3c-1-2.8-2-5.6-2.8-8.4c-0.9-3.1-2-6-4.9-7.8C-5-11.4-7-12-9.2-12.1
			c-0.3,0-0.7,0-1.2-0.1c0.6-0.6,1.1-1.1,1.7-1.5c3.5-3,4.2-7.6,2.8-11.5c-1.3-3.8-2.3-7.8-3.5-11.6c-0.1-0.3-0.6-0.7-1-0.7
			c-4.4-0.1-8.8-0.1-13.2,0c-4,0.1-7,2.1-9,5.6C-33-31.1-33.4-30.1-33.8-29.2"/>
	</g>
	<g id="g24_1_" transform="matrix(1.25,0,0,-1.25,338.37446,590.65915)">
		<path id="path26" class="st1" d="M-8.1,29.4c0.4,0.1,0.5,0.1,0.5,0.2c3.9,2.9,7.7,5.9,11.6,8.8c2.4,1.8,4.8,3.7,7.2,5.5
			c0.3,0.2,0.9,0.3,1.1,0.1c5.6-4.3,11.2-8.6,16.8-12.9c0.7-0.5,1.4-1,2.1-1.5c0.1,0.5,0.1,0.9,0,1.2c-0.5,1.7-1,3.4-1.5,5.1
			c-1.6,5.5-3.2,10.9-4.7,16.4c-0.1,0.3,0.1,0.9,0.4,1.1c0.8,0.6,1.6,1.1,2.4,1.7c5.2,3.6,10.3,7.1,15.5,10.7
			c0.4,0.3,0.7,0.6,1.1,0.9c-2.2,0.3-4.2,0.4-6.3,0.6c-5.8,0.4-11.5,0.8-17.3,1.1c-0.7,0-1.2,0.3-1.4,1c-0.3,1.1-0.7,2.1-1.1,3.2
			c-1.7,4.8-3.3,9.6-5,14.4c-0.4,1.1-0.8,2.2-1.2,3.3c-0.5-0.5-0.7-1-0.9-1.5C9,82.3,6.8,75.8,4.6,69.4c-0.3-1-0.8-1.4-1.9-1.4
			c-6.5-0.2-13.1-0.4-19.6-0.6c-0.9,0-1.7-0.1-2.6-0.2c0.4-0.6,0.8-0.9,1.2-1.2c5.6-4,11.1-7.9,16.7-11.9c0.8-0.5,1-1.1,0.7-2
			C-2.6,46.8-4.3,41.4-6,36C-6.6,33.9-7.3,31.7-8.1,29.4 M-18.9,68.3c6.8,0.2,13.7,0.5,20.5,0.7c1.9,0.1,1.9,0,2.5,1.8
			c1,2.9,2,5.8,3,8.8c1.4,4.1,2.8,8.1,4.3,12.2c0.1,0.3,0.4,0.6,0.7,0.8c0.2-0.3,0.5-0.6,0.6-0.9c1.4-4,2.8-7.9,4.2-11.9
			c1.1-3.1,2.2-6.2,3.2-9.3c0.2-0.7,0.6-1,1.4-1.1c4.9-0.3,9.9-0.6,14.8-0.9c3.1-0.2,6.3-0.4,9.4-0.6c0.3,0,0.6-0.3,0.9-0.5
			c-0.2-0.3-0.3-0.6-0.6-0.8c-6.4-4.5-12.9-9-19.4-13.4c-0.5-0.3-0.7-0.6-0.5-1.3c0.7-2.3,1.3-4.7,2-7c1.4-4.7,2.7-9.4,4.1-14
			c0.2-0.8,0.5-1.5,0.7-2.3c0.1-0.3,0-0.7-0.1-1c-0.4,0.1-0.8,0.1-1.1,0.3c-1.5,1.1-2.9,2.3-4.4,3.4c-5,3.8-10,7.6-14.9,11.5
			c-0.4,0.3-0.7,0.3-1.1,0C6.8,39.2,2.4,35.8-2,32.5c-2.1-1.6-4.2-3.2-6.3-4.8c-0.3-0.2-0.7-0.1-1.1-0.2c0,0.3,0,0.6,0.1,0.9
			c2,6.4,3.9,12.8,5.9,19.1c0.5,1.5,1,3.1,1.5,4.6c0.2,0.6,0.1,0.9-0.4,1.3c-4,2.8-8,5.7-12,8.5c-2.4,1.7-4.9,3.4-7.3,5.1
			c-0.2,0.2-0.3,0.5-0.4,0.8c0.3,0.1,0.5,0.3,0.8,0.3C-20.5,68.3-19.7,68.2-18.9,68.3C-18.9,68.2-18.9,68.3-18.9,68.3"/>
	</g>
	<g id="g28_1_" transform="matrix(1.25,0,0,-1.25,392.16658,535.9374)">
		<path id="path30" class="st1" d="M-20.7,16.5c0,0.3,0,0.7,0,1c0.2,2.3-2.3,4.5-5.1,4c-1.6-0.3-2.8-1.1-3.9-2.1
			c-0.8-0.7-1.4-0.7-2.2,0c-1.2,1-2.4,1.9-4.1,2.1c-2.6,0.3-4.4-1.2-4.9-3.1c-0.5-2.1-0.1-4.2,0.9-6.1c1.7-3.3,4.4-5.7,7.4-7.7
			c1.2-0.8,2.2-0.8,3.5,0c2.3,1.4,4.3,3.1,5.9,5.3C-21.7,11.8-20.5,13.9-20.7,16.5 M-42.2,16.3c0,3.6,2,6,5.1,6.4
			c2.2,0.3,4-0.8,5.5-2.2c0.6-0.5,0.9-0.5,1.5-0.1c1,0.8,2.2,1.6,3.4,2c4,1.3,7.8-2.2,7.2-6.4c-0.5-4.1-2.8-7.2-5.8-9.7
			C-26.7,5-28.4,4-30.1,3c-0.4-0.2-1-0.3-1.4-0.1c-5.2,2.7-9.4,6.4-10.6,12.5C-42.2,15.8-42.2,16.2-42.2,16.3"/>
	</g>
	<g id="g32_1_" transform="matrix(1.25,0,0,-1.25,374.28509,463.3239)">
		<path id="path34" class="st0" d="M-16.5-0.5C-41.6-0.5-62-20.9-62-46c0-25.1,20.4-45.5,45.5-45.5C8.6-91.5,29-71.1,29-46
			C29-20.9,8.6-0.5-16.5-0.5 M-16.5-2.6C7.4-2.6,26.9-22.1,26.9-46c0-23.9-19.5-43.4-43.4-43.4S-59.9-69.9-59.9-46
			C-59.9-22.1-40.4-2.6-16.5-2.6"/>
	</g>
	<path id="path5049" class="st1" d="M354.8,465.4c-7.6-0.2-15.5,1.2-22.9,4.4c-15.7,6.8-27.5,20.4-31.9,36.9
		c-3.3,12.7-2,26.4,3.7,38.2c8.8,18,26.6,30.1,46.3,31.2c18,1,34.9-6.2,46.1-19.8c12.1-14.7,16-33.9,10.3-52
		C399.3,480.9,377.8,466,354.8,465.4z M354.2,470.8c0.1,0,0.1,0,0.2,0.1c0.4,0.3,1.1,0.7,1.8,1.2c1.5,1,3.4,2.5,5.3,3.9
		s3.9,3,5.4,4.2c0.8,0.6,1.4,1.1,1.9,1.6c0.5,0.4,0.8,0.8,0.8,0.7c1.9,2.6,2.6,5.6,2.2,9.1c-0.2,1.2-0.4,2.7-0.4,2.7
		c0,0.2-0.2,0.3-0.1,0.8c0,0.3,0.2,0.9,0.7,1.1s0.9,0.2,1.1,0.2c0.4-0.1,0.6-0.2,0.9-0.3c0.3-0.1,0.6-0.3,1-0.6
		c4-2.2,7.6-2.4,11.1-0.7c0.1,0.1,1.4,0.9,2.9,1.9c1.5,1,3.3,2.3,5.1,3.6s3.6,2.6,4.9,3.6c0.7,0.5,1.2,0.9,1.6,1.3
		c0.2,0.1,0.3,0.2,0.4,0.3c0,0,0,0,0,0c-0.1,0.4-0.3,1.2-0.8,2.6c-0.6,1.8-1.9,5.6-2.9,8.5c-1,3.1-2.2,5.9-2.6,6.6
		c-1.9,3.2-4.9,4.9-9.8,5.5l-1.6,0.2c-0.8,0.1-1.3,0.8-1.2,1.5c0,0.3,0.2,0.6,0.4,0.8l1.9,1.8c1.4,1.3,1.9,2,2.6,3.6
		c0.9,1.9,0.9,1.9,1,4.5c0.1,2.7,0.1,2.6-0.8,5.6c-0.5,1.7-1.7,5.5-2.5,8.5c-0.6,2-1,3.4-1.3,4.2c-0.3,0.9-0.6,1.2-0.5,1.1
		c-0.2,0.1-0.1,0.1-0.1,0.1c0,0-0.2,0.1-0.8,0.1c-1.1,0.1-3.2,0.1-7.5,0.1c-4.7,0-7.4-0.1-9.2-0.2c-1.8-0.2-2.6-0.5-3.7-1.1
		c-2.3-1.2-4.5-3.6-5.9-6.8c0,0,0,0,0,0l-0.7-1.5c-0.3-0.7-1.1-1-1.8-0.7c-0.3,0.1-0.5,0.3-0.6,0.6l-1.4,2.7
		c-2.4,4.5-4.6,6.3-8.3,6.8c-1.3,0.2-6.2,0.3-10.6,0.4c-2.2,0-4.3,0-5.9,0c-0.8,0-1.5,0-1.9-0.1c0,0,0,0,0,0c0-0.1-0.1-0.1-0.1-0.3
		c-0.2-0.6-0.5-1.5-0.9-2.7c-0.8-2.4-2-6.1-3.5-11.2c-1.7-5.7-0.9-9.1,3.2-13.3c0.6-0.6,1.1-1.2,1.5-1.6c0.2-0.2,0.3-0.4,0.5-0.7
		c0.1-0.1,0.1-0.2,0.2-0.5c0-0.1,0.1-0.4,0-0.8c-0.1-0.4-0.6-0.8-1-0.9c-0.3-0.1-0.5-0.1-1-0.2c-0.5-0.1-1.1-0.2-1.8-0.4
		c-4.5-0.9-6.8-2.6-8.4-6.1c-0.5-1-2-5.1-3.3-9c-0.7-1.9-1.3-3.9-1.8-5.4c-0.2-0.8-0.4-1.4-0.6-1.9c-0.1-0.5-0.2-0.9-0.2-0.9v0
		l0-0.2l3.9-2.6c2.5-1.7,5.6-3.8,6.9-4.8c3.1-2.4,5.4-3.6,7.7-3.9c2.3-0.3,4.6,0.3,7.7,1.8l2.4,1.2c0.7,0.3,1.5,0.1,1.8-0.6
		c0.1-0.3,0.2-0.6,0.1-0.9l-0.2-0.7c-0.1-0.3-0.3-1.6-0.5-2.8c-0.6-3.7,0.6-7.4,3.1-9.8c0.9-0.8,4.6-3.8,8.1-6.3
		c1.7-1.3,3.4-2.5,4.7-3.4C353.2,471.4,353.7,471,354.2,470.8C354.1,470.8,354.1,470.8,354.2,470.8L354.2,470.8z"/>
	<path id="path5051" class="st1" d="M353.1,477.3c-0.6,0.1-0.7,0.4-0.8,0.6c-0.1,0.2-0.2,0.3-0.3,0.4c-0.1,0.2-0.1,0.3-0.2,0.5
		s-0.2,0.5-0.3,0.9c-0.3,0.7-0.6,1.7-1,2.9c-0.8,2.4-2,5.7-3.2,9.2c-1.4,4.1-2.5,7.3-3.4,9.6c-0.4,1.1-0.7,2-1,2.5
		c-0.1,0.3-0.2,0.5-0.3,0.6c0,0,0.1,0-0.2,0c-0.3,0.1-1,0.1-2.2,0.2c-2.4,0.1-6.9,0.3-15.5,0.6c-2.7,0.1-5.2,0.2-7,0.3
		c-0.9,0-1.7,0.1-2.3,0.1c-0.3,0-0.5,0-0.7,0.1c-0.1,0-0.2,0-0.2,0c-0.1,0-0.1,0-0.3,0.1c-0.1,0-0.3,0.1-0.4,0.3
		c-0.2,0.2-0.4,0.5-0.4,0.8c0,0.6,0.2,0.8,0.4,1c0.4,0.4,0.9,0.8,1.8,1.5c1.9,1.4,5.5,4,12.2,8.8c2.1,1.5,4.1,2.9,5.6,4
		c0.7,0.5,1.4,1,1.8,1.3c0.5,0.3,0.8,0.6,0.8,0.6c0.1,0.1,0.3,0.6,0.3,0.4c0-0.2,0-0.1,0,0c0,0.1-0.1,0.3-0.1,0.5
		c-0.1,0.4-0.3,1-0.5,1.8c-0.4,1.5-1,3.4-1.6,5.4c-1.8,5.9-3.5,11-4.6,14.7c-0.6,1.9-1.1,3.4-1.4,4.4c-0.2,0.5-0.3,0.9-0.4,1.2
		s-0.2,0.5-0.2,0.5c0,0.1-0.1,0.1-0.1,0.3c0,0.1-0.1,0.4,0.1,0.8c0.3,0.4,0.9,0.6,1.1,0.5c0.2,0,0.4-0.1,0.5-0.1
		c0.4-0.2,0.8-0.5,1.6-1.1c1.6-1.2,4.7-3.6,10.6-8.1c3.1-2.4,6-4.6,8.2-6.2c1.1-0.8,2-1.5,2.6-1.9c0.3-0.2,0.6-0.4,0.8-0.5
		c0.1,0,0.1-0.1,0.2-0.1c0,0,0.2,0.1,0.8,0.5c1.4,1,4.3,3.2,10.4,7.9c6.8,5.2,9.9,7.6,11.3,8.6c0.4,0.3,0.6,0.4,0.8,0.5
		c0.1,0.1,0.2,0.1,0.3,0.2c0.1,0.1,0.3,0.2,0.7,0.1c0.2,0,0.5-0.2,0.7-0.4c0.2-0.2,0.2-0.4,0.2-0.5c0-0.3,0-0.4,0-0.4
		c0-0.1,0-0.2,0,0c0-0.3,0-0.3,0-0.3c0-0.1,0-0.2-0.1-0.3c-0.1-0.2-0.1-0.5-0.2-0.9c-0.2-0.8-0.5-1.8-0.9-3.1
		c-0.7-2.6-1.7-6.1-2.8-9.8c-1.1-3.8-2.1-7.2-2.8-9.8c-0.4-1.3-0.6-2.3-0.8-3.1c-0.1-0.4-0.2-0.6-0.2-0.8c0.2-0.2,0.6-0.5,1.3-1.1
		c1.5-1.1,4.4-3.1,9.6-6.7c6.5-4.5,9.7-6.6,11.2-7.8c0.4-0.3,0.7-0.5,0.9-0.7c0.2-0.2,0.4-0.3,0.6-0.7c0.1-0.2,0.2-0.5,0.1-0.9
		c-0.1-0.4-0.4-0.6-0.5-0.7c-0.3-0.2-0.4-0.2-0.5-0.2c-0.2,0-0.2,0-0.3-0.1c-0.1,0-0.2,0-0.3,0c-0.2,0-0.6-0.1-1-0.1
		c-0.8-0.1-1.9-0.2-3.3-0.3c-2.7-0.2-6.4-0.5-10.3-0.7c-5.8-0.4-9.4-0.7-11.6-0.9c-1.1-0.1-1.8-0.2-2.2-0.3c-0.2,0-0.2-0.1-0.3-0.1
		c0,0,0,0,0,0c-0.1-0.2-0.2-0.5-0.4-0.8c-0.3-0.7-0.6-1.6-0.9-2.5c-0.9-2.8-2.8-8.3-4.5-13.1c-0.8-2.4-1.6-4.6-2.2-6.3
		c-0.3-0.8-0.6-1.5-0.7-2c-0.1-0.3-0.2-0.5-0.2-0.6s-0.1-0.2-0.2-0.4c-0.1-0.1-0.1-0.2-0.3-0.4c-0.1-0.1-0.2-0.2-0.4-0.3
		S353.4,477.2,353.1,477.3z M361.4,508.6c1.4,0.1,2.6,0.7,3.9,2.2c1.8,2.1,2.1,4.5,0.8,8.4c-0.8,2.3-2.3,4.5-4.6,6.8
		c-2.2,2.1-3.1,2.8-5.9,4.5c-0.5,0.3-1,0.6-1.4,0.7c-0.4,0.2-0.9,0.2-0.6,0.2c0.2,0,0.1,0-0.1-0.1c-0.2-0.1-0.4-0.2-0.7-0.3
		c-0.5-0.2-1.2-0.6-1.8-1c-3-1.8-7.3-6-8.5-8.4c-1.3-2.5-2-4.7-2-6.6c0-1.8,0.5-3.3,1.5-4.6c1.4-1.6,2.2-2,4.5-2c2.1,0,2.9,0.3,5,2
		c0.3,0.3,0.7,0.5,1,0.7c0.2,0.1,0.3,0.2,0.5,0.3c0.2,0.1,0.2,0.2,0.7,0.2c0.3,0,0.4-0.1,0.5-0.1s0.2-0.1,0.3-0.1
		c0.2-0.1,0.4-0.2,0.6-0.3c0.5-0.3,1-0.6,1.6-1C358.4,509,360,508.5,361.4,508.6z"/>
</g>
</svg>
